<svg xmlns="http://www.w3.org/2000/svg" width="34.781" height="23.529" viewBox="0 0 34.781 23.529">
  <g id="グループ_6575" data-name="グループ 6575" transform="translate(0.5 0.5)">
    <path id="パス_174" data-name="パス 174" d="M82.245,752.67H54.1a2.819,2.819,0,0,1-2.817-2.816v-16.9a2.819,2.819,0,0,1,2.817-2.816H82.245a2.819,2.819,0,0,1,2.817,2.816v16.9A2.819,2.819,0,0,1,82.245,752.67ZM54.1,731.267a1.691,1.691,0,0,0-1.69,1.689v16.9a1.692,1.692,0,0,0,1.69,1.689H82.245a1.692,1.692,0,0,0,1.69-1.689v-16.9a1.691,1.691,0,0,0-1.69-1.689Z" transform="translate(-51.28 -730.141)" fill="#186225" stroke="rgba(0,0,0,0)" stroke-width="1"/>
    <path id="パス_175" data-name="パス 175" d="M67.533,741.673a4.327,4.327,0,0,1-2.341-.643l-10.928-7.141a.536.536,0,0,1-.151-.764.6.6,0,0,1,.8-.143l10.926,7.141a3.352,3.352,0,0,0,3.378,0l11.514-7.149a.591.591,0,0,1,.794.162.534.534,0,0,1-.168.76l-11.5,7.142A4.307,4.307,0,0,1,67.533,741.673Z" transform="translate(-50.933 -729.793)" fill="#186225" stroke="rgba(0,0,0,0)" stroke-width="1"/>
    <path id="パス_176" data-name="パス 176" d="M54.529,746.509a.516.516,0,0,1-.335-.907l7.218-6.187a.516.516,0,0,1,.671.783l-7.218,6.187A.513.513,0,0,1,54.529,746.509Z" transform="translate(-50.933 -727.411)" fill="#186225" stroke="rgba(0,0,0,0)" stroke-width="1"/>
    <path id="パス_177" data-name="パス 177" d="M76.388,746.509a.515.515,0,0,1-.336-.124L68.834,740.2a.516.516,0,0,1,.671-.783l7.219,6.187a.516.516,0,0,1-.336.907Z" transform="translate(-46.217 -727.411)" fill="#186225" stroke="rgba(0,0,0,0)" stroke-width="1"/>
  </g>
</svg>
