<?xml version="1.0" encoding="utf-8"?>
<!-- Generator: Adobe Illustrator 27.5.0, SVG Export Plug-In . SVG Version: 6.00 Build 0)  -->
<svg version="1.1" id="レイヤー_1" xmlns="http://www.w3.org/2000/svg" xmlns:xlink="http://www.w3.org/1999/xlink" x="0px"
	 y="0px" viewBox="0 0 34.8 23.5" style="enable-background:new 0 0 34.8 23.5;" xml:space="preserve">
<style type="text/css">
	.st0{fill:#FFFFFF;}
</style>
<g id="グループ_6575" transform="translate(0.5 0.5)">
	<path id="パス_174" class="st0" d="M31,22.5H2.8c-1.6,0-2.8-1.3-2.8-2.8V2.8C0,1.3,1.3,0,2.8,0H31c1.6,0,2.8,1.3,2.8,2.8v16.9
		C33.8,21.3,32.5,22.5,31,22.5z M2.8,1.1c-0.9,0-1.7,0.8-1.7,1.7v16.9c0,0.9,0.8,1.7,1.7,1.7H31c0.9,0,1.7-0.8,1.7-1.7V2.8
		c0-0.9-0.8-1.7-1.7-1.7H2.8z"/>
	<path id="パス_175" class="st0" d="M16.6,11.9c-0.8,0-1.6-0.2-2.3-0.6L3.3,4.1C3.1,3.9,3,3.6,3.2,3.4c0,0,0,0,0,0
		C3.4,3.1,3.7,3,4,3.2l10.9,7.1c1,0.6,2.3,0.6,3.4,0l11.5-7.1c0.3-0.2,0.6-0.1,0.8,0.2c0.2,0.2,0.1,0.6-0.1,0.7c0,0,0,0,0,0
		l-11.5,7.1C18.2,11.7,17.4,11.9,16.6,11.9z"/>
	<path id="パス_176" class="st0" d="M3.6,19.1c-0.3,0-0.5-0.2-0.5-0.5c0-0.1,0.1-0.3,0.2-0.4l7.2-6.2c0.2-0.2,0.5-0.1,0.7,0.1
		c0.2,0.2,0.1,0.5-0.1,0.7L3.9,19C3.8,19.1,3.7,19.1,3.6,19.1z"/>
	<path id="パス_177" class="st0" d="M30.2,19.1c-0.1,0-0.2,0-0.3-0.1l-7.2-6.2c-0.2-0.2-0.2-0.5,0-0.7c0.2-0.2,0.5-0.2,0.7-0.1
		l7.2,6.2c0.2,0.2,0.2,0.5,0.1,0.7C30.5,19,30.3,19.1,30.2,19.1L30.2,19.1z"/>
</g>
</svg>
