<?xml version="1.0" encoding="utf-8"?>
<!-- Generator: Adobe Illustrator 28.0.0, SVG Export Plug-In . SVG Version: 6.00 Build 0)  -->
<svg version="1.1" id="_レイヤー_1" xmlns="http://www.w3.org/2000/svg" xmlns:xlink="http://www.w3.org/1999/xlink" x="0px"
	 y="0px" viewBox="0 0 233.3 320.9" style="enable-background:new 0 0 233.3 320.9;" xml:space="preserve">
<style type="text/css">
	.st0{fill:#BEC6BF;}
</style>
<path class="st0" d="M73.1,312.1c12-9,18.8-16.3,29.9-28.7c2.2-2.5,4.6-5.1,6.6-7.8c4.2-5.8,11.6-6.5,16.9-1.6
	c14.5,13.4,28.4,16.1,45.8,7.6c18.1-8.8,33.3-21.8,49.8-36.3c-23.2-5.9-44.5-12.1-67.1-10.9c-15.3,0.8-23.9,10.5-29.8,23.4
	c-1.1,2.4-2,5-3.3,7.2c-0.9,1.6-2.8,1.8-4.5,1c-2.3-1.1-1-2.8-0.3-4.2c8.8-17.6,17.5-35.3,26.6-52.8c3.3-6.3,15.1-8,20.2-3.3
	c10.1,9.4,21.6,10.3,33.4,4.4c13.2-6.6,24.7-15.8,36-26.8c-16.1-4.9-31.5-8.6-47.6-8.4c-10.4,0.1-18,5.2-22.2,14.5
	c-2.6,5.8-6.5,9-12.7,9.6c-0.7,0.2-1.5,0.4-2.2,0.6c0.2-0.5,0.5-1,0.7-1.5c5.5-13.6,11.1-27.1,16.5-40.8c1.3-3.4,4.3-3.8,7-4.9
	c14.1-5.6,21-15.8,20.7-31c-0.3-15.8-4-31.1-9.3-48.7c-13.8,17.5-29.3,31.8-33.2,53.4c-1.5,8.2,3,14.9,7.9,20.9
	c2.6,3.2,3.7,5.7,1.9,9.8c-7.3,16.1-14.3,32.4-21.9,49.7c-4.8-5.5-7-9.4-2.3-15.2c8-9.8,8.5-20.7,2.7-31.8
	c-6.8-13.1-16.1-24.2-27-35.9c-5.1,17.4-8.9,33.5-7.9,50.4c0.7,11,8.4,16.9,17.7,21.2c10.8,5,14.6,15.3,9.4,25.9
	c-5.4,10.9-11.1,21.7-17.5,34.1c-3.9-8.8-5-15-2-23.1c4.9-13.2,1.2-26-8.5-36.1c-14-14.6-31.3-24.8-50.6-35.8
	c1.6,25.3,2.5,48.8,13.7,70.2c5.9,11.2,17.3,14,29,15.1c11.1,1.1,17.3,9.7,12.2,19.7c-9.6,18.6-37.2,42.9-43,45.3
	c-5.8,2.4-13.5,1.1-10.6,6.9C57.5,323.8,61.2,321,73.1,312.1L73.1,312.1z"/>
</svg>
