<svg xmlns="http://www.w3.org/2000/svg" xmlns:xlink="http://www.w3.org/1999/xlink" width="256" height="30.566" viewBox="0 0 256 30.566">
  <defs>
    <clipPath id="clip-path">
      <rect id="長方形_23279" data-name="長方形 23279" width="256" height="30.566" fill="#186225"/>
    </clipPath>
  </defs>
  <g id="グループ_6590" data-name="グループ 6590" clip-path="url(#clip-path)">
    <path id="パス_5370" data-name="パス 5370" d="M260.087,34.925c.618-2.281,1.217-4.495,1.821-6.737,5.515-.446,12.152,1.39,16.57-2.88-3.723-.412-7.81-.01-11.73-.144.307-1.567.685-2.726,1.059-4.3A16.778,16.778,0,0,1,259.78,22.9c.479-2.348,1.2-4.653,1.754-6.986a.526.526,0,0,1,.426-.407,17.2,17.2,0,0,0,8.635-5.678,1.247,1.247,0,0,1,1.069-.537c4.193.014,8.385,0,12.573,0,0,0,6.3-.369,8.342,1.083,3.134,3.637-5.194,16.809-8.414,19.44C277.893,36.348,268.3,34.944,260.087,34.925Zm10.6-16.2c.01.043.014.091.024.134,4.217,0,8.433-.01,12.65,0,.23,0,.412-.024.522-.268.1-.685,1.912-2.813.752-2.947q-4.974-.05-9.952-.058c-1.715.144-2.5,2.358-3.991,3.143Z" transform="translate(-135.302 -4.819)" fill="#186225"/>
    <path id="パス_5371" data-name="パス 5371" d="M399.381,19.353c2.573,0,4.926.014,7.465-.01,1.342.321,2.2,3.038,3.2,4.111.254.388.259.388.724.283a14.966,14.966,0,0,0,10.479-7.753c-7.614-.168-15.233,0-22.866-.081.57-2.233,1.126-4.389,1.691-6.6q12.815,0,25.616-.014c3.522,0,5.28,2.137,4.221,4.71-2.894,7.034-8.141,13.484-15.693,15.568,1.193,1.921,2.357,3.508,3.627,5.415-2.52.043-4.883.01-7.379.043a.814.814,0,0,1-.767-.4c-3.388-5.132-6.934-10.13-10.312-15.271Z" transform="translate(-207.489 -4.839)" fill="#186225"/>
    <path id="パス_5372" data-name="パス 5372" d="M338.95,25.238a86.491,86.491,0,0,1-13.23.244c.642-2.243,1.26-4.4,1.883-6.584,9.665.321,20.906.072,26.191-9.579h7.528c-3.009,6-7.959,11.677-14.318,14.174a.64.64,0,0,0-.474.494c-.963,3.685-1.869,7.379-2.918,11.04-2.358,0-4.71.038-7.14-.01.8-3.282,1.658-6.474,2.473-9.78Z" transform="translate(-169.646 -4.854)" fill="#186225"/>
    <path id="パス_5373" data-name="パス 5373" d="M496.765,9.34c-1.485,10.628-6.91,23.311-18.6,25.453-5.271.47-10.6.029-15.889.2-.029-.4,1.514-6.579,1.768-7.144,5.53-.273,11.7,1,16.761-1.715,5.654-3.565,7.758-10.594,8.97-16.814,2.31-.038,4.619-.038,6.991.014Z" transform="translate(-240.77 -4.84)" fill="#186225"/>
    <path id="パス_5374" data-name="パス 5374" d="M114.906,22.546v2.645c1.418.086,2.774,0,4.188.048.067.853.029,1.677.014,2.564h-4.082a4.17,4.17,0,0,0,0,1.945h4.461c.077.925.038,1.8.034,2.75h-3.21c.733,1.974,2.53,3.172,3.575,4.864a17.027,17.027,0,0,1-.091,2.889,17.363,17.363,0,0,1-4.734-5.237c-.364,1.72-.029,3.661-.149,5.472h-2.482c-.01-1.72-.019-3.412-.029-5.108a1.249,1.249,0,0,1-.12-.048,15.058,15.058,0,0,1-4.926,4.95c.062-1.088-.4-2.511.244-3.412a11.844,11.844,0,0,0,3.6-4.322c-.934-.1-1.845,0-2.784-.067V29.748h3.944V27.87c-4.979.24-4.068-1.4-3.22-5.338h2.338c.034,1.15-1.2,3.057.858,2.688.129-.906-.014-1.787.105-2.683a19.5,19.5,0,0,1,2.482,0Z" transform="translate(-55.858 -11.717)" fill="#186225"/>
    <path id="パス_5375" data-name="パス 5375" d="M194.047,50H191.5c-.537-.163-.6-.872-.934-1.3-4.13,1.96-8.889.906-13.316,1.1V47.219c.513-.01,1.016-.034,1.524-.029,1.035.01.81.129,1.332-.748a10.987,10.987,0,0,0,1.26-3.2c-1.461-.12-2.88-.038-4.327-.062a7.991,7.991,0,0,1-.043-2.405c.436-.105,16.1-.125,16.641-.01-.11.561.412,2.425-.364,2.41-2.808,0-5.621.01-8.433.014-.58,0-.575.01-.771.537-.407,1.126-.862,2.233-1.246,3.369,2.118.153,4.562.407,6.512-.69-.388-.747-.767-1.485-1.169-2.262.767-.034,2.659-.489,3.067.249.92,1.893,1.921,3.694,2.808,5.606Z" transform="translate(-92.148 -21.191)" fill="#186225"/>
    <path id="パス_5376" data-name="パス 5376" d="M153.9,37.855v2.482c-7.164,1.562-7.231-7.48-7.762-12.363-3.325-.225-6.651.043-9.981-.11V25.378c3.273-.105,6.536.057,9.847-.034.043-.9.081-1.763.125-2.693.757-.029,1.485-.019,2.281.01.034.9.062,1.759.1,2.664a4.914,4.914,0,0,0,1.969-.086c-.35-.863-.69-1.687-1.049-2.568H152.1c2.29,5.127,2.1,5.324-3.445,5.324a28.14,28.14,0,0,0,1.768,8.764c.628,1.337,2.257,1.021,3.479,1.1Z" transform="translate(-70.917 -11.788)" fill="#186225"/>
    <path id="パス_5377" data-name="パス 5377" d="M474.931,9.37c.743,4.375,1.485,8.74,2.238,13.153h-7.058c-.815-4.37-1.591-8.74-2.391-13.153Z" transform="translate(-243.604 -4.88)" fill="#186225"/>
    <path id="パス_5378" data-name="パス 5378" d="M486.475,9.37h6.68c.771,4.389,1.409,8.716,2.123,13.144h-6.613c-.728-4.37-1.457-8.735-2.195-13.144Z" transform="translate(-253.369 -4.88)" fill="#186225"/>
    <path id="パス_5379" data-name="パス 5379" d="M223.07,30.907c2.19,2.578,3.019,1.438,2.7,5.381a12.947,12.947,0,0,1-3.508-2.511v6.771a16.853,16.853,0,0,1-2.458-.019c-.062-1.864,0-3.714-.043-5.64a33.81,33.81,0,0,1-3.225,2.391c0-.906-.412-2.99.259-3.56a16.868,16.868,0,0,0,4.72-5.223c.719-1.126-4-.522-4.686-.618-.062-.891-.024-1.72-.014-2.578.982-.153,1.936.014,2.942-.115.014-.839.029-1.668.048-2.559.81-.062,1.586-.034,2.429-.029v2.54c3.9.311,2.343,3.656.834,5.764Z" transform="translate(-112.713 -11.764)" fill="#186225"/>
    <path id="パス_5380" data-name="パス 5380" d="M237.255,29.623h-3.244a9.9,9.9,0,0,1-.048-2.664h3.249c.1-1.524.029-2.885.048-4.4h2.425c.081,2.578.029,4.4.029,4.4s1.145.029,3.354-.01a17.76,17.76,0,0,1,.014,2.674h-3.249c-.134.47-.158,7.394-.034,8.031,1.2.129,2.429-.034,3.7.086.053.858.01,1.7.024,2.616-3.45.014-6.857.043-10.3,0V37.7h4.011c.038-2.707.01-5.343.014-8.074Z" transform="translate(-121.474 -11.75)" fill="#186225"/>
    <path id="パス_5381" data-name="パス 5381" d="M193.984,29.181a16.119,16.119,0,0,1-4.111-1.457c-.024.551-.048,1.016-.072,1.533-3.546.173-7.1.077-10.647.048-.024-.431-.053-.863-.081-1.361a21.411,21.411,0,0,1-3.785,1.3c-.019-.91-.024-1.682-.019-2.6a20.726,20.726,0,0,0,6.315-3.263c1.169-.853,2.659-2.774,4.078-1.394a18.9,18.9,0,0,0,8.026,4.519c.68.321.139,1.917.3,2.674ZM188.134,26.9c-4.332-3.268-2.885-3.527-7.082,0Z" transform="translate(-91.284 -11.203)" fill="#186225"/>
    <path id="パス_5382" data-name="パス 5382" d="M97.169,22.6c.858-.019,1.62-.024,2.439.01v3.292c.556.024,1.059.043,1.6.062v2.444c-.422.019-.839.038-1.251.053,0,1.2.771,2.286,1.184,3.373-.019,1.14.053,2.262-.048,3.4-.479-.585-.91-1.112-1.346-1.639-.163,2.329-.077,4.629-.149,6.958H97.236c-.163-2.113.105-4.245-.134-6.344a18.279,18.279,0,0,1-2.353,2.952,12.675,12.675,0,0,1,.12-4.13A17.313,17.313,0,0,0,97.2,28.445H94.783a18.7,18.7,0,0,1-.048-2.487c.872-.038,1.548-.053,2.439-.043V22.6Z" transform="translate(-49.291 -11.765)" fill="#186225"/>
    <path id="パス_5383" data-name="パス 5383" d="M145.731,37.95v2.535h-3.024c-.038,1.749-.014,3.431-.014,5.17a11.026,11.026,0,0,0,3.474-.891c.019.915.024,1.754-.01,2.607-2.9,1.433-6.22.858-9.334.882-.038-.8-.024-1.6-.01-2.444,1.107-.129,2.2.01,3.282-.086a31.509,31.509,0,0,0,.014-5.256h-2.976c-.034-.872-.014-1.682-.01-2.516Z" transform="translate(-71.249 -19.766)" fill="#186225"/>
    <path id="パス_5384" data-name="パス 5384" d="M333.283,5.36c3.958-.043,4.2,6.071.115,6.2-4.063.081-4.217-6.124-.115-6.2" transform="translate(-172.02 -2.791)" fill="#186225"/>
    <path id="パス_5385" data-name="パス 5385" d="M347.2,11.579c-3.963.057-4.212-6.018-.187-6.205,3.915-.216,4.413,6.081.187,6.205" transform="translate(-179.223 -2.796)" fill="#186225"/>
    <path id="パス_5386" data-name="パス 5386" d="M36.93,52.1" transform="translate(-19.234 -27.135)" fill="#186225"/>
    <path id="パス_5387" data-name="パス 5387" d="M36.7,25.453a8.56,8.56,0,1,0-3.91-16.618,11.048,11.048,0,0,0-21.649,0,8.56,8.56,0,1,0-3.91,16.618,31.624,31.624,0,0,1,5.453-2.171,11.512,11.512,0,0,0,2.784,2.027A12.914,12.914,0,0,1,5.031,29.133L4.868,30.48a12.8,12.8,0,0,0,1.485.086,14.549,14.549,0,0,0,10.158-4.38c.091-.091.182-.192.273-.288a14.623,14.623,0,0,0,10.412.048c.077.081.149.163.23.24a14.569,14.569,0,0,0,10.158,4.38,12.8,12.8,0,0,0,1.485-.086l-.163-1.346A12.922,12.922,0,0,1,28.53,25.362a11.675,11.675,0,0,0,2.856-2.046,31.9,31.9,0,0,1,5.324,2.132Zm-5.477-6.028a.408.408,0,0,1,.019-.11c0-.014,0-.034.01-.048v-.01l3.014-7.465a.578.578,0,0,1,1.073.431L33.015,18l6.229-4.063a.578.578,0,1,1,.632.968l-6.143,4.011h5.894a.575.575,0,1,1,0,1.15H31.8a.526.526,0,0,1-.192-.038h-.024s-.014-.01-.019-.01a.7.7,0,0,1-.158-.105.015.015,0,0,1-.01,0s-.01-.014-.014-.019c-.019-.024-.043-.043-.062-.072a.5.5,0,0,1-.019-.048.225.225,0,0,1-.029-.043,709.346,709.346,0,0,1-.01-.067.68.68,0,0,1-.024-.105c0-.019-.01-.034-.01-.053s.01-.038.01-.057ZM15.9,8.874a.579.579,0,0,1,.8.168l4.691,7.188V6.723a.575.575,0,1,1,1.15,0v9.5l4.691-7.188a.578.578,0,1,1,.968.633l-5.75,8.812s-.01.01-.01.014a.508.508,0,0,1-.048.058c-.01.01-.014.019-.024.029a.818.818,0,0,1-.067.053s-.01.014-.019.019a.036.036,0,0,0-.019.01l-.058.029-.038.014a.4.4,0,0,1-.192.038h-.01a.74.74,0,0,1-.144-.019.086.086,0,0,1-.043-.019h0l-.038-.014-.058-.029a.036.036,0,0,1-.019-.01s-.01-.01-.019-.014a.362.362,0,0,1-.067-.053c-.01-.01-.014-.019-.024-.024a.609.609,0,0,1-.048-.058s-.01-.01-.01-.014l-5.75-8.812a.579.579,0,0,1,.168-.8ZM4.313,20.058a.575.575,0,0,1,0-1.15h5.894L4.063,14.9a.578.578,0,0,1,.633-.968l6.229,4.063L8.6,12.219a.578.578,0,0,1,1.073-.431l3.014,7.465v.01s.01.034.014.048a.443.443,0,0,1,.019.11c0,.019.01.038.01.058a.2.2,0,0,1-.01.053.376.376,0,0,1-.024.105,4255.514,4255.514,0,0,1-.01.067.225.225,0,0,1-.029.043c-.01.014-.01.034-.019.048a.447.447,0,0,1-.062.072s-.01.014-.014.019a.015.015,0,0,0-.01,0,.481.481,0,0,1-.158.105s-.014.01-.019.01h-.024a.526.526,0,0,1-.192.038H4.313Zm12.113,4.217a10.546,10.546,0,0,1-2.175-1.414,32.73,32.73,0,0,1,3.6-.656,14.337,14.337,0,0,1-1.428,2.07m5.63,1.255a13.233,13.233,0,0,1-4.322-.719,15.028,15.028,0,0,0,1.73-2.77c.824-.062,1.658-.1,2.5-.1s1.677.034,2.5.1a15.047,15.047,0,0,0,1.768,2.813,13.254,13.254,0,0,1-4.178.676m5.506-1.2A13.913,13.913,0,0,1,26.091,22.2a31.93,31.93,0,0,1,3.738.69,10.933,10.933,0,0,1-2.262,1.438Z" transform="translate(0 0)" fill="#186225"/>
  </g>
</svg>
